{"scene":0,"asset":{"generator":"ImageToStl.com","version":"2.0"},"scenes":[{"name":"Scene","nodes":[0]}],"nodes":[{"name":"Node0","children":[1]},{"name":"Node1","mesh":0}],"materials":[{"name":"x1","pbrMetallicRoughness":{"baseColorFactor":[0.85,0.85,0.85,1],"metallicFactor":0.05,"roughnessFactor":0.5},"doubleSided":true}],"meshes":[{"name":"Mesh0","primitives":[{"indices":2,"material":0,"attributes":{"POSITION":0,"NORMAL":1}}]}],"accessors":[{"bufferView":0,"componentType":5126,"count":64275,"type":"VEC3","min":[-27.5,-19.445436,17.36],"max":[57.557312,29.445436,42.36]},{"bufferView":1,"componentType":5126,"count":64275,"type":"VEC3"},{"bufferView":2,"componentType":5123,"count":66993,"type":"SCALAR"}],"bufferViews":[{"target":34962,"buffer":0,"byteLength":771300,"byteOffset":0},{"target":34962,"buffer":0,"byteLength":771300,"byteOffset":771300},{"target":34963,"buffer":0,"byteLength":133986,"byteOffset":1542600}],"buffers":[{"byteLength":1676588,"uri":"data:application/octet-stream;base64,"}]}